<?xml version="1.0" standalone="no"?>
<!DOCTYPE svg PUBLIC "-//W3C//DTD SVG 20010904//EN"
 "http://www.w3.org/TR/2001/REC-SVG-20010904/DTD/svg10.dtd">
<svg version="1.0" xmlns="http://www.w3.org/2000/svg"
 width="547.000000pt" height="547.000000pt" viewBox="0 0 547.000000 547.000000"
 preserveAspectRatio="xMidYMid meet">
<metadata>
Created by potrace 1.11, written by Peter Selinger 2001-2013
</metadata>
<g transform="translate(0.000000,547.000000) scale(0.100000,-0.100000)"
fill="#000000" stroke="none">
<path d="M3270 4492 c-62 -30 -70 -62 -70 -267 0 -207 8 -237 73 -268 78 -39
169 9 182 97 4 23 5 117 3 207 -3 183 -10 203 -73 233 -43 21 -72 20 -115 -2z"/>
<path d="M2206 4049 c-53 -42 -71 -112 -42 -168 26 -50 150 -158 190 -165 99
-19 181 99 132 192 -17 32 -121 135 -153 151 -36 18 -97 13 -127 -10z"/>
<path d="M4304 4041 c-69 -51 -251 -244 -262 -278 -22 -65 6 -124 72 -154 72
-31 101 -16 244 125 130 127 152 157 152 204 0 114 -114 171 -206 103z"/>
<path d="M3198 3670 c-153 -26 -288 -96 -432 -224 l-28 -25 -38 19 c-21 11
-78 32 -127 46 -76 23 -107 27 -228 28 -115 1 -156 -3 -230 -22 -301 -76 -546
-305 -640 -598 l-25 -80 -58 -18 c-147 -47 -269 -133 -362 -257 -99 -132 -150
-284 -150 -450 0 -136 21 -225 82 -348 98 -199 269 -332 503 -393 39 -10 252
-13 980 -13 l930 0 78 23 c252 73 444 255 524 497 24 72 27 95 27 225 0 131
-3 153 -27 227 l-27 82 39 56 c146 209 172 528 61 771 -83 184 -249 339 -436
410 -130 49 -287 65 -416 44z m273 -266 c147 -44 262 -136 327 -262 41 -80 48
-101 63 -190 10 -67 -3 -180 -31 -253 -33 -89 -30 -88 -106 -29 -130 98 -258
146 -420 157 l-91 6 -18 56 c-35 113 -124 265 -209 356 l-28 30 29 23 c48 40
116 76 183 99 81 28 219 31 301 7z m-971 -165 c134 -36 242 -105 327 -208 86
-104 135 -224 149 -364 3 -38 13 -74 21 -83 11 -11 48 -14 172 -14 232 0 323
-30 437 -144 67 -67 106 -134 129 -223 69 -263 -105 -546 -371 -603 -33 -7
-348 -10 -949 -8 l-900 3 -57 23 c-221 89 -357 316 -321 534 41 240 211 394
473 425 l65 8 8 50 c37 217 81 317 192 430 164 168 405 235 625 174z"/>
<path d="M4455 3002 c-70 -45 -92 -109 -57 -171 36 -66 62 -72 277 -69 206 3
226 8 255 64 18 33 15 97 -6 132 -31 54 -44 57 -249 60 -172 3 -193 1 -220
-16z"/>
<path d="M4206 2029 c-39 -34 -52 -77 -41 -131 11 -47 136 -175 186 -188 101
-27 188 72 150 172 -12 32 -87 115 -135 150 -55 40 -113 39 -160 -3z"/>
</g>
</svg>
